<svg xmlns="http://www.w3.org/2000/svg" xmlns:xlink="http://www.w3.org/1999/xlink" width="490" zoomAndPan="magnify" viewBox="0 0 367.5 367.500003" height="490" preserveAspectRatio="xMidYMid meet" version="1.0"><defs><clipPath id="03d057c476"><path d="M 26 183.5 L 265 183.5 L 265 240.421875 L 26 240.421875 Z M 26 183.5 " clip-rule="nonzero"/></clipPath></defs><path fill="#ffffff" d="M 0 0 L 367 0 L 367 367 L 0 367 Z M 0 0 " fill-opacity="1" fill-rule="nonzero"/><path fill="#ffffff" d="M 0 0 L 367 0 L 367 367 L 0 367 Z M 0 0 " fill-opacity="1" fill-rule="nonzero"/><path fill="#252223" d="M 95.449219 123.980469 L 107.824219 122.050781 C 107.824219 123.15625 107.6875 124.257812 107.550781 125.773438 C 107.414062 127.152344 107.136719 128.667969 106.726562 130.183594 L 101.226562 154.304688 C 100.675781 156.925781 100.398438 158.71875 100.398438 159.542969 C 100.398438 160.785156 101.085938 161.472656 102.460938 161.472656 L 103.699219 161.335938 L 104.113281 168.089844 C 103.289062 168.367188 102.1875 168.640625 100.675781 168.78125 C 99.160156 169.054688 97.648438 169.054688 96.136719 169.054688 C 92.972656 169.054688 90.636719 168.640625 89.398438 167.675781 C 88.160156 166.710938 87.609375 165.332031 87.609375 163.402344 C 87.609375 162.714844 87.75 161.886719 87.886719 160.921875 C 88.023438 160.09375 88.296875 158.992188 88.574219 157.753906 L 93.660156 135.699219 C 94.347656 132.527344 94.898438 130.046875 95.175781 128.253906 C 95.3125 126.601562 95.449219 125.222656 95.449219 123.980469 M 142.617188 146.585938 C 142.617188 151.964844 140.828125 157.199219 137.390625 161.886719 C 133.953125 166.710938 128.453125 169.054688 121.027344 169.054688 C 116.765625 169.054688 113.601562 168.089844 111.402344 166.023438 C 109.199219 163.957031 107.964844 161.058594 107.964844 157.339844 C 107.964844 151.964844 109.75 146.863281 113.1875 142.039062 C 116.625 137.351562 122.128906 134.871094 129.554688 134.871094 C 133.539062 134.871094 136.703125 135.835938 139.042969 137.628906 C 141.378906 139.695312 142.617188 142.589844 142.617188 146.585938 M 120.476562 158.441406 C 120.476562 160.371094 121.4375 161.335938 123.089844 161.335938 C 125.152344 161.335938 126.800781 159.269531 128.175781 155.132812 C 129.414062 151 130.101562 147.828125 130.101562 145.484375 C 130.101562 143.554688 129.277344 142.453125 127.488281 142.453125 C 125.425781 142.453125 123.640625 144.519531 122.402344 148.65625 C 121.027344 152.929688 120.476562 156.234375 120.476562 158.441406 M 170.53125 135.007812 C 173.832031 135.007812 176.171875 135.558594 177.40625 136.664062 C 178.785156 137.765625 179.472656 139.417969 179.472656 141.347656 C 179.472656 142.175781 179.332031 143.140625 179.058594 144.246094 L 173.558594 168.226562 L 161.730469 168.226562 L 166.542969 147.550781 C 166.683594 146.863281 166.820312 146.3125 166.820312 145.621094 C 166.820312 144.382812 166.132812 143.832031 164.894531 143.832031 C 163.933594 143.832031 163.105469 144.105469 162.28125 144.519531 C 161.457031 144.933594 160.769531 145.761719 159.945312 146.863281 L 154.992188 168.226562 L 143.167969 168.226562 L 147.84375 147.828125 C 148.667969 144.246094 148.941406 141.488281 148.941406 139.558594 C 148.941406 138.730469 148.804688 137.765625 148.804688 136.800781 L 159.257812 135.007812 C 159.53125 135.972656 159.667969 136.664062 159.804688 137.078125 C 159.945312 137.488281 159.945312 137.902344 159.945312 138.59375 C 161.320312 137.488281 162.96875 136.664062 164.894531 135.972656 C 166.683594 135.421875 168.605469 135.007812 170.53125 135.007812 M 193.636719 157.476562 C 193.636719 158.992188 194.046875 160.09375 194.734375 160.648438 C 195.421875 161.199219 196.660156 161.472656 198.585938 161.472656 C 200.097656 161.472656 201.75 161.199219 203.535156 160.648438 C 205.324219 160.09375 206.972656 159.269531 208.488281 158.304688 L 210.824219 165.195312 C 208.210938 166.574219 205.597656 167.539062 203.125 168.226562 C 200.511719 168.917969 198.308594 169.191406 196.386719 169.191406 C 191.296875 169.191406 187.585938 168.226562 185.246094 166.296875 C 182.910156 164.367188 181.671875 161.335938 181.671875 157.199219 C 181.671875 151 183.597656 145.761719 187.308594 141.488281 C 191.023438 137.214844 196.109375 135.007812 202.4375 135.007812 C 206.425781 135.007812 209.722656 135.699219 212.0625 137.214844 C 214.539062 138.730469 215.773438 141.074219 215.773438 144.246094 C 215.773438 147.414062 214.261719 150.171875 211.097656 152.375 C 207.9375 154.582031 203.671875 155.683594 198.171875 155.683594 C 196.109375 155.683594 194.734375 155.546875 194.046875 155.410156 Z M 198.308594 148.515625 C 199.824219 148.515625 201.0625 148.242188 202.296875 147.550781 C 203.398438 147 203.949219 146.035156 203.949219 144.933594 C 203.949219 143.417969 203.125 142.726562 201.335938 142.726562 C 199.824219 142.726562 198.722656 143.140625 197.898438 144.105469 C 197.074219 145.070312 196.386719 146.449219 195.972656 148.105469 C 196.109375 148.242188 196.523438 148.242188 196.933594 148.378906 C 197.210938 148.515625 197.761719 148.515625 198.308594 148.515625 M 240.253906 144.796875 C 239.289062 144.246094 238.191406 143.96875 236.953125 143.96875 C 235.164062 143.96875 233.652344 145.070312 232.140625 147 L 227.1875 168.367188 L 215.363281 168.367188 L 219.898438 148.65625 C 220.3125 146.863281 220.589844 145.070312 220.863281 143.554688 C 221.136719 142.039062 221.277344 140.796875 221.277344 139.832031 C 221.277344 139.28125 221.277344 138.867188 221.277344 138.453125 C 221.277344 138.179688 221.136719 137.628906 221 136.800781 L 231.589844 134.871094 C 231.726562 135.421875 231.863281 135.972656 232 136.664062 C 232.140625 137.351562 232.277344 138.042969 232.277344 138.59375 C 233.238281 137.488281 234.476562 136.664062 236.128906 135.835938 C 237.640625 135.007812 239.289062 134.734375 241.078125 134.734375 C 242.453125 134.734375 243.828125 135.007812 245.339844 135.699219 Z M 273.53125 145.898438 L 270.917969 157.476562 C 270.78125 157.890625 270.78125 158.304688 270.78125 158.578125 C 270.78125 159.269531 270.917969 159.957031 271.054688 160.507812 C 271.332031 161.058594 271.605469 161.75 272.292969 162.300781 L 262.667969 169.46875 C 261.980469 169.191406 261.429688 168.640625 261.015625 167.816406 C 260.46875 167.125 260.191406 166.296875 260.054688 165.609375 C 259.09375 166.4375 257.855469 167.261719 256.203125 168.089844 C 254.554688 168.78125 252.765625 169.191406 250.980469 169.191406 C 247.539062 169.191406 244.929688 168.226562 243.277344 166.4375 C 241.628906 164.507812 240.800781 161.75 240.800781 158.164062 C 240.800781 154.71875 241.488281 151.273438 242.867188 148.105469 C 244.242188 144.796875 246.027344 142.175781 248.089844 140.246094 C 250.292969 138.316406 252.492188 136.9375 254.691406 136.25 C 256.890625 135.558594 259.640625 135.148438 262.941406 135.148438 C 265.554688 135.148438 268.167969 135.285156 270.644531 135.699219 C 273.117188 136.113281 275.042969 136.523438 276.417969 137.078125 C 276.007812 138.179688 275.457031 139.417969 275.042969 140.9375 C 274.492188 142.3125 273.945312 143.96875 273.53125 145.898438 M 261.015625 143.140625 C 260.191406 143.140625 259.503906 143.277344 258.816406 143.417969 C 258.128906 143.554688 257.304688 144.246094 256.34375 145.210938 C 255.378906 146.175781 254.554688 148.105469 253.730469 150.722656 C 253.042969 153.339844 252.628906 155.824219 252.628906 157.890625 C 252.628906 159.957031 253.453125 161.058594 254.964844 161.058594 C 255.652344 161.058594 256.480469 160.648438 257.441406 159.820312 C 258.40625 158.992188 258.953125 158.304688 259.09375 157.753906 L 262.390625 143.554688 C 261.980469 143.277344 261.566406 143.140625 261.015625 143.140625 " fill-opacity="1" fill-rule="nonzero"/><g clip-path="url(#03d057c476)"><path fill="#bd2a2a" d="M 231.523438 223.382812 L 236.582031 216.820312 C 237.722656 217.578125 239.113281 218.335938 241.011719 218.964844 C 242.90625 219.597656 244.679688 219.976562 246.449219 219.976562 C 247.460938 219.976562 248.472656 219.722656 249.230469 219.34375 C 249.992188 218.964844 250.371094 218.335938 250.371094 217.453125 C 250.371094 216.695312 250.117188 216.191406 249.484375 215.9375 C 248.851562 215.683594 247.714844 215.304688 245.941406 214.925781 L 243.285156 214.296875 C 241.136719 213.792969 239.492188 213.035156 238.480469 211.773438 C 237.34375 210.511719 236.835938 208.996094 236.835938 206.976562 C 236.835938 203.945312 238.226562 201.296875 241.011719 199.152344 C 243.792969 197.003906 247.714844 195.871094 252.644531 195.871094 C 256.695312 195.871094 260.867188 196.753906 264.914062 198.519531 L 260.109375 204.703125 C 257.453125 203.316406 254.921875 202.683594 252.519531 202.683594 C 251.507812 202.683594 250.621094 202.8125 250.117188 203.316406 C 249.484375 203.695312 249.230469 204.324219 249.230469 204.957031 C 249.230469 205.335938 249.484375 205.714844 249.992188 206.09375 C 250.496094 206.472656 251.382812 206.722656 252.644531 207.101562 L 255.554688 207.734375 C 257.832031 208.238281 259.476562 209.121094 260.613281 210.132812 C 261.753906 211.265625 262.257812 212.78125 262.257812 214.800781 C 262.257812 217.703125 260.742188 220.355469 257.707031 223.003906 C 254.671875 225.53125 250.496094 226.917969 245.058594 226.917969 C 240.378906 227.042969 235.824219 225.910156 231.523438 223.382812 M 217.992188 208.238281 C 219.382812 208.238281 220.519531 207.984375 221.660156 207.355469 C 222.671875 206.722656 223.175781 205.964844 223.175781 204.957031 C 223.175781 203.570312 222.417969 202.9375 220.773438 202.9375 C 219.382812 202.9375 218.371094 203.316406 217.609375 204.199219 C 216.851562 205.082031 216.21875 206.34375 215.839844 207.859375 C 215.96875 207.984375 216.347656 207.984375 216.726562 208.113281 C 217.105469 208.238281 217.484375 208.238281 217.992188 208.238281 M 213.816406 216.441406 C 213.816406 217.832031 214.195312 218.839844 214.828125 219.34375 C 215.460938 219.851562 216.597656 220.101562 218.371094 220.101562 C 219.761719 220.101562 221.277344 219.851562 222.921875 219.34375 C 224.566406 218.839844 226.085938 218.082031 227.476562 217.199219 L 229.625 223.511719 C 227.222656 224.773438 224.820312 225.65625 222.542969 226.285156 C 220.140625 226.917969 218.117188 227.171875 216.347656 227.171875 C 211.667969 227.171875 208.25 226.285156 206.101562 224.519531 C 203.953125 222.753906 202.8125 219.976562 202.8125 216.191406 C 202.8125 210.511719 204.582031 205.714844 208 201.800781 C 211.414062 197.890625 216.09375 195.871094 221.910156 195.871094 C 225.578125 195.871094 228.613281 196.5 230.765625 197.890625 C 233.042969 199.277344 234.179688 201.421875 234.179688 204.324219 C 234.179688 207.230469 232.789062 209.753906 229.878906 211.773438 C 226.972656 213.792969 223.050781 214.800781 217.992188 214.800781 C 216.09375 214.800781 214.828125 214.675781 214.195312 214.550781 Z M 205.976562 191.324219 C 205.089844 190.820312 204.078125 190.695312 203.066406 190.695312 C 202.433594 190.695312 201.800781 190.945312 201.167969 191.324219 C 200.535156 191.703125 200.15625 192.210938 200.03125 192.839844 L 199.144531 196.753906 L 205.976562 196.753906 L 203.066406 203.316406 L 197.878906 203.316406 L 193.199219 224.519531 C 192.441406 227.800781 191.304688 230.703125 189.53125 233.355469 C 187.761719 236.003906 185.738281 238.402344 183.207031 240.675781 L 176.632812 235.375 C 178.023438 233.984375 179.160156 232.472656 180.171875 230.703125 C 181.183594 228.9375 181.816406 227.042969 182.324219 224.773438 L 187.003906 203.441406 L 183.96875 203.441406 L 185.484375 196.878906 L 188.269531 196.878906 C 188.269531 196.375 188.394531 195.742188 188.519531 194.984375 C 188.648438 194.230469 189.027344 192.839844 189.53125 190.820312 C 190.039062 188.800781 191.554688 187.035156 194.085938 185.773438 C 196.617188 184.382812 199.398438 183.753906 202.433594 183.753906 C 204.078125 183.753906 205.46875 183.878906 206.734375 184.132812 C 208 184.382812 209.136719 184.761719 210.148438 185.394531 Z M 177.011719 194.734375 C 175.238281 194.734375 173.847656 194.230469 172.582031 193.09375 C 171.320312 192.082031 170.8125 190.695312 170.8125 189.054688 C 170.8125 187.539062 171.445312 186.152344 172.710938 185.140625 C 173.976562 184.003906 175.492188 183.5 177.265625 183.5 C 179.035156 183.5 180.425781 184.003906 181.691406 185.140625 C 182.828125 186.277344 183.460938 187.539062 183.460938 189.179688 C 183.460938 190.695312 182.828125 192.082031 181.5625 193.21875 C 180.171875 194.230469 178.78125 194.734375 177.011719 194.734375 M 163.097656 226.285156 L 169.929688 197.132812 L 181.058594 196.246094 L 173.976562 226.414062 L 163.097656 226.414062 Z M 148.300781 227.042969 C 144.503906 227.042969 141.597656 226.160156 139.574219 224.394531 C 137.546875 222.625 136.535156 219.976562 136.535156 216.570312 C 136.535156 215.8125 136.535156 215.054688 136.664062 214.296875 C 136.789062 213.539062 137.167969 211.644531 137.800781 208.617188 C 138.5625 205.585938 140.457031 202.683594 143.621094 199.90625 C 146.78125 197.132812 150.828125 195.742188 155.636719 195.742188 C 158.039062 195.742188 159.808594 195.996094 161.199219 196.5 C 162.59375 197.003906 163.984375 197.890625 165.375 199.277344 L 158.925781 205.335938 C 158.417969 204.703125 157.785156 204.199219 157.027344 203.820312 C 156.269531 203.441406 155.507812 203.191406 154.75 203.191406 C 153.359375 203.191406 152.21875 203.820312 151.335938 204.957031 C 150.449219 206.09375 149.691406 207.984375 149.058594 210.761719 C 148.425781 213.539062 148.171875 215.433594 148.171875 216.570312 C 148.171875 217.703125 148.425781 218.460938 148.804688 218.964844 C 149.183594 219.472656 149.945312 219.597656 150.957031 219.597656 C 152.09375 219.597656 153.230469 219.34375 154.371094 218.839844 C 155.507812 218.335938 156.519531 217.703125 157.53125 216.945312 L 160.820312 222.753906 C 158.796875 224.265625 156.773438 225.277344 154.625 226.035156 C 152.601562 226.792969 150.449219 227.042969 148.300781 227.042969 M 120.472656 208.238281 C 121.863281 208.238281 123.003906 207.984375 124.140625 207.355469 C 125.152344 206.722656 125.660156 205.964844 125.660156 204.957031 C 125.660156 203.570312 124.902344 202.9375 123.257812 202.9375 C 121.863281 202.9375 120.851562 203.316406 120.09375 204.199219 C 119.335938 205.082031 118.703125 206.34375 118.324219 207.859375 C 118.449219 207.984375 118.828125 207.984375 119.210938 208.113281 C 119.460938 208.238281 119.96875 208.238281 120.472656 208.238281 M 116.300781 216.441406 C 116.300781 217.832031 116.679688 218.839844 117.3125 219.34375 C 117.945312 219.851562 119.082031 220.101562 120.851562 220.101562 C 122.246094 220.101562 123.761719 219.851562 125.40625 219.34375 C 127.050781 218.839844 128.570312 218.082031 129.960938 217.199219 L 132.109375 223.511719 C 129.707031 224.773438 127.304688 225.65625 125.027344 226.285156 C 122.625 226.917969 120.601562 227.171875 118.828125 227.171875 C 114.148438 227.171875 110.734375 226.285156 108.585938 224.519531 C 106.433594 222.753906 105.296875 219.976562 105.296875 216.191406 C 105.296875 210.511719 107.066406 205.714844 110.480469 201.800781 C 113.898438 197.890625 118.578125 195.871094 124.394531 195.871094 C 128.0625 195.871094 131.097656 196.5 133.25 197.890625 C 135.523438 199.277344 136.664062 201.421875 136.664062 204.324219 C 136.664062 207.230469 135.273438 209.753906 132.363281 211.773438 C 129.453125 213.792969 125.53125 214.800781 120.472656 214.800781 C 118.578125 214.800781 117.3125 214.675781 116.679688 214.550781 Z M 104.664062 204.832031 C 103.777344 204.324219 102.765625 204.074219 101.628906 204.074219 C 99.984375 204.074219 98.59375 205.082031 97.203125 206.851562 L 92.648438 226.414062 L 81.769531 226.414062 L 85.945312 208.363281 C 86.324219 206.722656 86.578125 205.082031 86.828125 203.695312 C 87.082031 202.304688 87.210938 201.171875 87.210938 200.285156 C 87.210938 199.78125 87.210938 199.402344 87.082031 199.023438 C 87.082031 198.773438 86.957031 198.265625 86.828125 197.511719 L 96.570312 195.742188 C 96.695312 196.246094 96.820312 196.878906 96.949219 197.382812 C 97.074219 198.015625 97.203125 198.644531 97.203125 199.152344 C 98.085938 198.140625 99.226562 197.382812 100.742188 196.625 C 102.132812 195.871094 103.652344 195.617188 105.296875 195.617188 C 106.5625 195.617188 107.824219 195.871094 109.21875 196.5 Z M 81.644531 204.832031 C 80.757812 204.324219 79.746094 204.074219 78.609375 204.074219 C 76.964844 204.074219 75.574219 205.082031 74.183594 206.851562 L 69.628906 226.414062 L 58.75 226.414062 L 62.925781 208.363281 C 63.304688 206.722656 63.558594 205.082031 63.808594 203.695312 C 64.0625 202.304688 64.191406 201.171875 64.191406 200.285156 C 64.191406 199.78125 64.191406 199.402344 64.191406 199.023438 C 64.191406 198.773438 64.0625 198.265625 63.9375 197.511719 L 73.675781 195.742188 C 73.800781 196.246094 73.929688 196.878906 74.054688 197.382812 C 74.183594 198.015625 74.183594 198.644531 74.183594 199.152344 C 75.066406 198.140625 76.207031 197.382812 77.722656 196.625 C 79.113281 195.871094 80.632812 195.617188 82.277344 195.617188 C 83.542969 195.617188 84.804688 195.871094 86.199219 196.5 Z M 44.710938 203.316406 C 43.953125 203.316406 43.320312 203.441406 42.6875 203.570312 C 42.054688 203.695312 41.296875 204.324219 40.410156 205.210938 C 39.527344 206.09375 38.765625 207.859375 38.136719 210.257812 C 37.503906 212.65625 37.121094 214.925781 37.121094 216.820312 C 37.121094 218.714844 37.882812 219.722656 39.273438 219.722656 C 39.90625 219.722656 40.664062 219.34375 41.550781 218.585938 C 42.433594 217.832031 42.941406 217.199219 43.066406 216.695312 L 46.101562 203.695312 C 45.597656 203.441406 45.21875 203.316406 44.710938 203.316406 M 56.222656 205.839844 L 53.820312 216.441406 C 53.691406 216.820312 53.691406 217.199219 53.691406 217.453125 C 53.691406 218.082031 53.820312 218.714844 53.945312 219.21875 C 54.070312 219.722656 54.449219 220.355469 55.082031 220.859375 L 46.230469 227.421875 C 45.597656 227.171875 45.089844 226.664062 44.710938 225.910156 C 44.207031 225.277344 43.953125 224.519531 43.828125 223.890625 C 42.941406 224.644531 41.800781 225.402344 40.285156 226.035156 C 38.765625 226.664062 37.121094 227.042969 35.480469 227.042969 C 32.316406 227.042969 29.914062 226.160156 28.394531 224.519531 C 26.878906 222.753906 26.117188 220.230469 26.117188 216.945312 C 26.117188 213.792969 26.75 210.636719 28.015625 207.734375 C 29.28125 204.703125 30.925781 202.304688 32.824219 200.539062 C 34.847656 198.773438 36.871094 197.511719 38.894531 196.878906 C 40.917969 196.246094 43.445312 195.871094 46.484375 195.871094 C 48.886719 195.871094 51.289062 195.996094 53.566406 196.375 C 55.84375 196.753906 57.613281 197.132812 58.878906 197.636719 C 58.5 198.644531 57.992188 199.78125 57.613281 201.171875 C 57.105469 202.558594 56.601562 204.074219 56.222656 205.839844 " fill-opacity="1" fill-rule="nonzero"/></g><path fill="#bd2a2a" d="M 282.621094 192.460938 C 274.652344 189.054688 275.414062 198.265625 275.414062 199.65625 L 275.414062 225.65625 C 275.414062 230.578125 277.941406 232.851562 283.632812 229.945312 L 312.09375 215.433594 C 318.417969 212.277344 318.164062 208.492188 311.964844 205.714844 Z M 282.621094 192.460938 " fill-opacity="1" fill-rule="evenodd"/><path fill="#252223" d="M 307.414062 192.460938 C 301.847656 190.0625 300.582031 193.851562 300.328125 196.753906 L 313.230469 202.558594 C 316.394531 203.945312 319.808594 206.34375 319.933594 210.257812 C 320.0625 214.171875 316.644531 216.820312 313.484375 218.460938 L 300.203125 225.152344 L 300.203125 225.65625 C 300.203125 230.578125 302.734375 232.851562 308.425781 229.945312 L 336.882812 215.433594 C 343.207031 212.277344 342.953125 208.492188 336.757812 205.714844 Z M 307.414062 192.460938 " fill-opacity="1" fill-rule="evenodd"/></svg>